<mxfile host="Electron" agent="Mozilla/5.0 (Windows NT 10.0; Win64; x64) AppleWebKit/537.36 (KHTML, like Gecko) draw.io/24.7.17 Chrome/128.0.6613.36 Electron/32.0.1 Safari/537.36" version="24.7.17">
  <diagram name="第 1 页" id="_WQKmvGBL0fW5tUEFXdZ">
    <mxGraphModel dx="1221" dy="823" grid="1" gridSize="10" guides="1" tooltips="1" connect="1" arrows="1" fold="1" page="1" pageScale="1" pageWidth="827" pageHeight="1169" math="0" shadow="0">
      <root>
        <mxCell id="0" />
        <mxCell id="1" parent="0" />
        <mxCell id="dTcixxXejlwQUUDECHfq-8" value="" style="edgeStyle=orthogonalEdgeStyle;rounded=0;orthogonalLoop=1;jettySize=auto;html=1;" edge="1" parent="1" source="dTcixxXejlwQUUDECHfq-1" target="dTcixxXejlwQUUDECHfq-4">
          <mxGeometry relative="1" as="geometry" />
        </mxCell>
        <mxCell id="dTcixxXejlwQUUDECHfq-1" value="&lt;font style=&quot;font-size: 14px;&quot;&gt;程序开始&lt;/font&gt;" style="ellipse;whiteSpace=wrap;html=1;" vertex="1" parent="1">
          <mxGeometry x="360" y="40" width="120" height="40" as="geometry" />
        </mxCell>
        <mxCell id="dTcixxXejlwQUUDECHfq-2" value="&lt;font style=&quot;font-size: 14px;&quot;&gt;程序结束&lt;/font&gt;" style="ellipse;whiteSpace=wrap;html=1;" vertex="1" parent="1">
          <mxGeometry x="550" y="200" width="120" height="40" as="geometry" />
        </mxCell>
        <mxCell id="dTcixxXejlwQUUDECHfq-12" style="edgeStyle=orthogonalEdgeStyle;rounded=0;orthogonalLoop=1;jettySize=auto;html=1;exitX=0.5;exitY=1;exitDx=0;exitDy=0;entryX=0.5;entryY=0;entryDx=0;entryDy=0;" edge="1" parent="1" source="dTcixxXejlwQUUDECHfq-3" target="dTcixxXejlwQUUDECHfq-5">
          <mxGeometry relative="1" as="geometry" />
        </mxCell>
        <mxCell id="dTcixxXejlwQUUDECHfq-22" value="&lt;font style=&quot;font-size: 14px;&quot;&gt;是&lt;/font&gt;" style="edgeLabel;html=1;align=center;verticalAlign=middle;resizable=0;points=[];" vertex="1" connectable="0" parent="dTcixxXejlwQUUDECHfq-12">
          <mxGeometry x="0.0667" relative="1" as="geometry">
            <mxPoint x="10" y="-1" as="offset" />
          </mxGeometry>
        </mxCell>
        <mxCell id="dTcixxXejlwQUUDECHfq-16" value="" style="edgeStyle=orthogonalEdgeStyle;rounded=0;orthogonalLoop=1;jettySize=auto;html=1;" edge="1" parent="1" source="dTcixxXejlwQUUDECHfq-3" target="dTcixxXejlwQUUDECHfq-2">
          <mxGeometry relative="1" as="geometry" />
        </mxCell>
        <mxCell id="dTcixxXejlwQUUDECHfq-24" value="&lt;font style=&quot;font-size: 14px;&quot;&gt;否&lt;/font&gt;" style="edgeLabel;html=1;align=center;verticalAlign=middle;resizable=0;points=[];" vertex="1" connectable="0" parent="dTcixxXejlwQUUDECHfq-16">
          <mxGeometry x="-0.1238" y="3" relative="1" as="geometry">
            <mxPoint y="-7" as="offset" />
          </mxGeometry>
        </mxCell>
        <mxCell id="dTcixxXejlwQUUDECHfq-3" value="&lt;font style=&quot;font-size: 14px;&quot;&gt;n &amp;lt;= 10000&lt;/font&gt;" style="rhombus;whiteSpace=wrap;html=1;" vertex="1" parent="1">
          <mxGeometry x="360" y="200" width="120" height="40" as="geometry" />
        </mxCell>
        <mxCell id="dTcixxXejlwQUUDECHfq-9" value="" style="edgeStyle=orthogonalEdgeStyle;rounded=0;orthogonalLoop=1;jettySize=auto;html=1;" edge="1" parent="1" source="dTcixxXejlwQUUDECHfq-4" target="dTcixxXejlwQUUDECHfq-3">
          <mxGeometry relative="1" as="geometry" />
        </mxCell>
        <mxCell id="dTcixxXejlwQUUDECHfq-4" value="&lt;font style=&quot;font-size: 14px;&quot;&gt;n = 1&lt;/font&gt;" style="rounded=0;whiteSpace=wrap;html=1;" vertex="1" parent="1">
          <mxGeometry x="360" y="120" width="120" height="40" as="geometry" />
        </mxCell>
        <mxCell id="dTcixxXejlwQUUDECHfq-13" style="edgeStyle=orthogonalEdgeStyle;rounded=0;orthogonalLoop=1;jettySize=auto;html=1;exitX=0.5;exitY=1;exitDx=0;exitDy=0;entryX=0.5;entryY=0;entryDx=0;entryDy=0;" edge="1" parent="1" source="dTcixxXejlwQUUDECHfq-5" target="dTcixxXejlwQUUDECHfq-7">
          <mxGeometry relative="1" as="geometry" />
        </mxCell>
        <mxCell id="dTcixxXejlwQUUDECHfq-5" value="&lt;font style=&quot;font-size: 14px;&quot;&gt;遍历所有的 i &amp;lt; n&lt;/font&gt;&lt;div&gt;&lt;font style=&quot;font-size: 14px;&quot;&gt;若 n % i == 0 则将其存入数组&lt;/font&gt;&lt;/div&gt;" style="rounded=0;whiteSpace=wrap;html=1;" vertex="1" parent="1">
          <mxGeometry x="315" y="280" width="210" height="40" as="geometry" />
        </mxCell>
        <mxCell id="dTcixxXejlwQUUDECHfq-15" value="" style="edgeStyle=orthogonalEdgeStyle;rounded=0;orthogonalLoop=1;jettySize=auto;html=1;" edge="1" parent="1" source="dTcixxXejlwQUUDECHfq-7" target="dTcixxXejlwQUUDECHfq-14">
          <mxGeometry relative="1" as="geometry" />
        </mxCell>
        <mxCell id="dTcixxXejlwQUUDECHfq-7" value="&lt;font style=&quot;font-size: 14px;&quot;&gt;计算sum&lt;/font&gt;&lt;div style=&quot;font-size: 14px;&quot;&gt;&lt;font style=&quot;font-size: 14px;&quot;&gt;sum == n&lt;/font&gt;&lt;/div&gt;" style="rhombus;whiteSpace=wrap;html=1;" vertex="1" parent="1">
          <mxGeometry x="360" y="350" width="120" height="60" as="geometry" />
        </mxCell>
        <mxCell id="dTcixxXejlwQUUDECHfq-19" value="" style="edgeStyle=orthogonalEdgeStyle;rounded=0;orthogonalLoop=1;jettySize=auto;html=1;" edge="1" parent="1" source="dTcixxXejlwQUUDECHfq-14" target="dTcixxXejlwQUUDECHfq-18">
          <mxGeometry relative="1" as="geometry" />
        </mxCell>
        <mxCell id="dTcixxXejlwQUUDECHfq-14" value="&lt;font style=&quot;font-size: 14px;&quot;&gt;输出 &lt;br&gt;n=arr[0]+arr[1]+...&lt;/font&gt;" style="shape=parallelogram;perimeter=parallelogramPerimeter;whiteSpace=wrap;html=1;fixedSize=1;" vertex="1" parent="1">
          <mxGeometry x="340" y="440" width="160" height="40" as="geometry" />
        </mxCell>
        <mxCell id="dTcixxXejlwQUUDECHfq-21" style="edgeStyle=orthogonalEdgeStyle;rounded=0;orthogonalLoop=1;jettySize=auto;html=1;exitX=0.5;exitY=1;exitDx=0;exitDy=0;" edge="1" parent="1" source="dTcixxXejlwQUUDECHfq-18">
          <mxGeometry relative="1" as="geometry">
            <mxPoint x="420" y="180" as="targetPoint" />
            <Array as="points">
              <mxPoint x="420" y="580" />
              <mxPoint x="290" y="580" />
              <mxPoint x="290" y="180" />
            </Array>
          </mxGeometry>
        </mxCell>
        <mxCell id="dTcixxXejlwQUUDECHfq-18" value="&lt;font style=&quot;font-size: 14px;&quot;&gt;n ++&lt;/font&gt;" style="rounded=0;whiteSpace=wrap;html=1;" vertex="1" parent="1">
          <mxGeometry x="360" y="520" width="120" height="40" as="geometry" />
        </mxCell>
      </root>
    </mxGraphModel>
  </diagram>
</mxfile>
